<svg width="17" height="20" viewBox="0 0 17 20" fill="none" xmlns="http://www.w3.org/2000/svg">
<path d="M13.5691 10.6254C13.5972 13.652 16.2181 14.6592 16.2472 14.672C16.225 14.7431 15.8284 16.1074 14.8663 17.5166C14.0347 18.735 13.1715 19.9489 11.8118 19.974C10.4757 19.9987 10.0461 19.1799 8.51863 19.1799C6.9916 19.1799 6.51428 19.9489 5.24955 19.9987C3.93708 20.0485 2.93765 18.6812 2.09908 17.4673C0.385571 14.9842 -0.923906 10.4508 0.834391 7.39061C1.70787 5.87092 3.26886 4.90859 4.96316 4.88391C6.25198 4.85927 7.46846 5.753 8.25633 5.753C9.0437 5.753 10.522 4.67821 12.0761 4.83606C12.7266 4.8632 14.5528 5.09947 15.7255 6.81993C15.631 6.87864 13.5465 8.09499 13.5691 10.6254ZM11.0582 3.1933C11.755 2.34789 12.224 1.171 12.096 0C11.0916 0.0404612 9.8771 0.670851 9.15667 1.5158C8.51104 2.26404 7.94561 3.46164 8.09817 4.60946C9.21767 4.69628 10.3613 4.03925 11.0582 3.1933Z" fill="white"/>
</svg>
