<svg width="35" height="35" viewBox="0 0 35 35" fill="none" xmlns="http://www.w3.org/2000/svg">
<path d="M6.0374 20.4926C5.77159 22.1838 6.96 23.3577 8.41507 23.9428C13.9935 26.1857 21.7565 26.1857 27.3349 23.9428C28.79 23.3577 29.9784 22.1838 29.7126 20.4926C29.5492 19.4532 28.7415 18.5877 28.143 17.7425C27.3591 16.6219 27.2812 15.3996 27.2811 14.0993C27.2811 9.07388 23.0698 5 17.875 5C12.6802 5 8.46891 9.07388 8.46891 14.0993C8.46879 15.3996 8.3909 16.6219 7.60701 17.7425C7.00855 18.5877 6.20077 19.4532 6.0374 20.4926Z" stroke="currentColor" stroke-width="1.5" stroke-linecap="round" stroke-linejoin="round"/>
<path d="M14.125 28.75C15.1202 29.5273 16.4343 30 17.875 30C19.3157 30 20.6298 29.5273 21.625 28.75" stroke="currentColor" stroke-width="1.5" stroke-linecap="round" stroke-linejoin="round"/>
</svg>
