<svg width="24" height="24" viewBox="0 0 24 24" fill="none" xmlns="http://www.w3.org/2000/svg">
<path d="M2.17962 2.89932L4.37184 0.707107C4.76236 0.316583 5.39553 0.316583 5.78605 0.707107L9.635 4.55605C10.0255 4.94658 10.0255 5.57974 9.635 5.97026L7.05327 8.552C6.66 8.94526 6.5625 9.54606 6.81123 10.0435C8.24906 12.9192 10.5808 15.2509 13.4565 16.6888C13.9539 16.9375 14.5547 16.84 14.948 16.4467L17.5297 13.865C17.9203 13.4745 18.5534 13.4745 18.9439 13.865L22.7929 17.7139C23.1834 18.1045 23.1834 18.7376 22.7929 19.1282L20.6007 21.3204C18.4893 23.4317 15.1468 23.6693 12.758 21.8777L9.02331 19.0767C7.27978 17.769 5.73096 16.2202 4.42331 14.4767L1.62226 10.742C-0.169278 8.35324 0.0682712 5.01068 2.17962 2.89932Z" fill="currentColor"/>
</svg>
