<svg width="85" height="85" viewBox="0 0 85 85" fill="none" xmlns="http://www.w3.org/2000/svg">
<circle cx="42.5" cy="42.5" r="42.5" fill="#BFBFBF"/>
<path d="M23.7998 27.1244C23.7998 27.1244 25.122 23.4033 29.882 23.4033" stroke="#333333" stroke-width="2" stroke-linecap="round" stroke-linejoin="round"/>
<path d="M63.0888 27.1244C63.0888 27.1244 61.7666 23.4033 57.0066 23.4033" stroke="#333333" stroke-width="2" stroke-linecap="round" stroke-linejoin="round"/>
<path d="M31.2989 38.231C32.9158 38.231 34.2266 36.5565 34.2266 34.491C34.2266 32.4254 32.9158 30.751 31.2989 30.751C29.6819 30.751 28.3711 32.4254 28.3711 34.491C28.3711 36.5565 29.6819 38.231 31.2989 38.231Z" fill="#333333"/>
<path d="M55.5899 38.231C57.2069 38.231 58.5177 36.5565 58.5177 34.491C58.5177 32.4254 57.2069 30.751 55.5899 30.751C53.9729 30.751 52.6621 32.4254 52.6621 34.491C52.6621 36.5565 53.9729 38.231 55.5899 38.231Z" fill="#333333"/>
<path d="M33.6033 42.2549C34.8499 45.5227 38.8544 47.1093 43.3877 47.1093C47.9588 47.1093 52.0199 45.5227 53.2855 42.2549" stroke="#333333" stroke-width="2" stroke-linecap="round" stroke-linejoin="round"/>
<path d="M65.8656 46.8254C69.1308 46.8254 71.7778 44.9818 71.7778 42.7076C71.7778 40.4334 69.1308 38.5898 65.8656 38.5898C62.6004 38.5898 59.9534 40.4334 59.9534 42.7076C59.9534 44.9818 62.6004 46.8254 65.8656 46.8254Z" fill="#A48D7E"/>
<path d="M21.0233 46.8254C24.2885 46.8254 26.9355 44.9818 26.9355 42.7076C26.9355 40.4334 24.2885 38.5898 21.0233 38.5898C17.7581 38.5898 15.1111 40.4334 15.1111 42.7076C15.1111 44.9818 17.7581 46.8254 21.0233 46.8254Z" fill="#A48D7E"/>
</svg>
