<svg width="43" height="43" viewBox="0 0 43 43" fill="none" xmlns="http://www.w3.org/2000/svg">
<path fill-rule="evenodd" clip-rule="evenodd" d="M39.3092 15.3188L37.428 13.4375C36.5315 12.5309 35.3165 12.0102 34.0417 11.9863H26.875V10.9471C26.875 8.22595 24.6691 6.02002 21.948 6.02002H7.16671C6.42457 6.02002 5.82296 6.62164 5.82296 7.36377C5.82296 8.1059 6.42457 8.70752 7.16671 8.70752H21.8942C23.1311 8.70752 24.1338 9.71021 24.1338 10.9471V22.2884C24.1338 23.0305 24.7354 23.6321 25.4775 23.6321C26.2197 23.6321 26.8213 23.0305 26.8213 22.2884V14.6738H33.988C34.5817 14.6714 35.1509 14.9107 35.5646 15.3367L37.4459 17.1284C37.7024 17.3944 37.8874 17.7211 37.9834 18.0779H30.4584C29.7162 18.0779 29.1146 18.6796 29.1146 19.4217C29.1146 20.1638 29.7162 20.7654 30.4584 20.7654H38.073V28.38C38.0973 28.9894 37.8722 29.5823 37.4495 30.0219C37.0269 30.4615 36.4432 30.7097 35.8334 30.7092H33.8446C33.4037 28.642 31.5777 27.1644 29.464 27.1644C27.3503 27.1644 25.5243 28.642 25.0834 30.7092H15.5159C15.0336 28.5725 13.0662 27.1059 10.8807 27.2543C8.69526 27.4026 6.94395 29.1214 6.75481 31.3037C6.56568 33.486 7.99517 35.4806 10.1225 36.0027C12.2499 36.5248 14.4403 35.4186 15.283 33.3967H25.3342C26.0326 35.0597 27.6603 36.1416 29.464 36.1416C31.2677 36.1416 32.8954 35.0597 33.5938 33.3967H35.8334C38.5545 33.3967 40.7605 31.1908 40.7605 28.4696V18.8125C40.7629 17.5008 40.2403 16.2427 39.3092 15.3188ZM11.1442 33.11C10.5427 33.1394 9.9842 32.7986 9.73507 32.2504C9.48594 31.7021 9.59663 31.0573 10.0144 30.6235C10.4321 30.1897 11.0722 30.0548 11.6295 30.2831C12.1868 30.5113 12.5483 31.0566 12.5417 31.6588C12.5422 32.4397 11.9246 33.0811 11.1442 33.11ZM28.0961 32.1989C28.3224 32.7501 28.8592 33.11 29.455 33.11C30.2595 33.1101 30.9144 32.4632 30.9242 31.6588C30.9315 31.063 30.5782 30.5218 30.0298 30.2887C29.4814 30.0557 28.8466 30.1769 28.4227 30.5956C27.9988 31.0144 27.8698 31.6477 28.0961 32.1989Z" fill="currentColor"/>
<path d="M19.2605 16.125C19.2508 15.3869 18.6548 14.7909 17.9167 14.7813H3.58337C2.84124 14.7813 2.23962 15.3829 2.23962 16.125C2.23962 16.8672 2.84124 17.4688 3.58337 17.4688H17.9167C18.6548 17.4591 19.2508 16.8631 19.2605 16.125Z" fill="currentColor"/>
<path d="M17.9167 20.1563H8.95837C8.21624 20.1563 7.61462 20.7579 7.61462 21.5C7.61462 22.2422 8.21624 22.8438 8.95837 22.8438H17.9167C18.6588 22.8438 19.2605 22.2422 19.2605 21.5C19.2605 20.7579 18.6588 20.1563 17.9167 20.1563Z" fill="currentColor"/>
</svg>
