<svg width="42" height="42" viewBox="0 0 42 42" fill="none" xmlns="http://www.w3.org/2000/svg">
<path d="M40 21H2" stroke="currentColor" stroke-width="3" stroke-linecap="round" stroke-linejoin="round"/>
<path d="M36.2 30.5H28.6C25.0173 30.5 23.226 30.5 22.113 29.387C21 28.274 21 26.4827 21 22.9V21" stroke="currentColor" stroke-width="3" stroke-linecap="round" stroke-linejoin="round"/>
<path d="M5.8 21V40M36.2 21V40" stroke="currentColor" stroke-width="3" stroke-linecap="round" stroke-linejoin="round"/>
<path d="M26.7762 3.13816C25.3868 1.81595 23.134 1.81595 21.7446 3.13816C20.9591 3.8857 20.6576 4.74436 21.5256 5.57037L24.2162 8.13072C25.083 8.95564 25.9815 8.68256 26.7762 7.92633C28.1657 6.60412 28.1657 4.46038 26.7762 3.13816ZM26.7762 3.13816C27.718 2.51915 28.777 1.65351 29.9534 2.14497C30.5054 2.37556 30.8841 2.94001 31.6415 4.0689L34.4887 8.31236C35.5614 9.91115 36.0977 10.7105 36.1869 11.6166C36.2762 12.5227 35.9051 13.4024 35.1631 15.162L32.7009 21" stroke="currentColor" stroke-width="3" stroke-linejoin="round"/>
<path d="M5.8 21.0001V12.4501C5.8 10.3091 6.65614 9.6001 8.65 9.6001C10.6439 9.6001 11.5 10.3091 11.5 12.4501V21.0001" stroke="currentColor" stroke-width="3" stroke-linecap="round" stroke-linejoin="round"/>
<path d="M11.5 21.0001V12.4501C11.5 10.3091 12.3561 9.6001 14.35 9.6001C16.3439 9.6001 17.2 10.3091 17.2 12.4501V21.0001" stroke="currentColor" stroke-width="3" stroke-linecap="round" stroke-linejoin="round"/>
</svg>
