<svg width="30" height="30" viewBox="0 0 30 30" fill="none" xmlns="http://www.w3.org/2000/svg">
<path d="M14.25 26.9999H6.74999C5.09313 26.9999 3.74999 25.6568 3.75 23.9999L3.75012 5.99998C3.75013 4.34314 5.09327 3 6.75012 3H20.2504C21.9073 3 23.2505 4.34315 23.2505 6V12M24.75 24.75L26.25 26.25M9.00047 9H18.0005M9.00047 13.5H18.0005M9.00047 18H13.5005M25.5 21.75C25.5 23.8211 23.8211 25.5 21.75 25.5C19.6789 25.5 18 23.8211 18 21.75C18 19.6789 19.6789 18 21.75 18C23.8211 18 25.5 19.6789 25.5 21.75Z" stroke="currentColor" stroke-width="2" stroke-linecap="round" stroke-linejoin="round"/>
</svg>
