<svg width="15" height="16" viewBox="0 0 15 16" fill="none" xmlns="http://www.w3.org/2000/svg">
<path d="M1.40625 1.90625C1.40625 1.78193 1.45564 1.6627 1.54354 1.57479C1.63145 1.48689 1.75068 1.4375 1.875 1.4375H13.125C13.2493 1.4375 13.3685 1.48689 13.4565 1.57479C13.5444 1.6627 13.5938 1.78193 13.5938 1.90625V3.78125C13.5937 3.89685 13.551 4.00837 13.4738 4.09438L9.375 8.64875V13.1563C9.37493 13.2546 9.34392 13.3504 9.28638 13.4302C9.22884 13.5099 9.14768 13.5696 9.05438 13.6006L6.24188 14.5381C6.17144 14.5616 6.09645 14.568 6.02306 14.5568C5.94968 14.5456 5.88 14.5171 5.81977 14.4737C5.75953 14.4303 5.71046 14.3733 5.6766 14.3072C5.64274 14.2411 5.62506 14.168 5.625 14.0938V8.64875L1.52625 4.09438C1.44901 4.00837 1.40627 3.89685 1.40625 3.78125V1.90625ZM2.34375 2.375V3.60125L6.4425 8.15563C6.51974 8.24163 6.56248 8.35315 6.5625 8.46875V13.4431L8.4375 12.8188V8.46875C8.43752 8.35315 8.48026 8.24163 8.5575 8.15563L12.6562 3.60125V2.375H2.34375Z" fill="currentColor"/>
</svg>
