<svg width="27" height="28" viewBox="0 0 27 28" fill="none" xmlns="http://www.w3.org/2000/svg">
<path d="M9.41896 4.03657L1.3321 11.113C0.638609 11.7198 1.10358 12.7976 2.05887 12.7976C2.64249 12.7976 3.1156 13.2346 3.1156 13.7737V18.2786C3.1156 22.1542 3.1156 24.092 4.41911 25.296C5.72262 26.5 7.82058 26.5 12.0165 26.5H14.9835C19.1794 26.5 21.2774 26.5 22.5809 25.296C23.8844 24.092 23.8844 22.1542 23.8844 18.2786V13.7737C23.8844 13.2346 24.3575 12.7976 24.9411 12.7976C25.8964 12.7976 26.3614 11.7198 25.6679 11.113L17.581 4.03657C15.6485 2.34552 14.6823 1.5 13.5 1.5C12.3177 1.5 11.3515 2.34552 9.41896 4.03657Z" stroke="currentColor" stroke-width="1.5" stroke-linecap="round" stroke-linejoin="round"/>
</svg>
