<svg width="51" height="51" viewBox="0 0 51 51" fill="none" xmlns="http://www.w3.org/2000/svg">
<g clip-path="url(#clip0_486_1486)">
<path d="M40.7519 17.0779L41.4685 17.8146L42.1853 17.0782C43.6008 15.6239 46.2159 16.1182 47.162 17.9657C47.602 18.8247 47.7114 20.0812 46.886 21.7092C46.0954 23.2686 44.4501 25.1477 41.4688 27.2034C38.4882 25.1477 36.8433 23.2685 36.0528 21.7089C35.2274 20.0806 35.3367 18.8238 35.7766 17.9645C36.7224 16.1168 39.3365 15.6227 40.7519 17.0779ZM27.8125 16.6338C27.8125 18.6063 27.0289 20.4981 25.6341 21.8929C24.2393 23.2877 22.3475 24.0713 20.375 24.0713C18.4025 24.0713 16.5107 23.2877 15.1159 21.8929C13.7211 20.4981 12.9375 18.6063 12.9375 16.6338C12.9375 14.6612 13.7211 12.7695 15.1159 11.3747C16.5107 9.97988 18.4025 9.19629 20.375 9.19629C22.3475 9.19629 24.2393 9.97988 25.6341 11.3747C27.0289 12.7695 27.8125 14.6612 27.8125 16.6338ZM6.31858 40.9463C6.31753 40.9463 6.31608 40.9462 6.31423 40.9462C6.30542 40.9459 6.28789 40.9451 6.2629 40.9433C6.21258 40.9397 6.13417 40.9321 6.03745 40.916C5.83927 40.8829 5.59031 40.8187 5.35346 40.7003C5.12053 40.5838 4.91802 40.4248 4.7715 40.2051C4.62916 39.9916 4.5 39.6619 4.5 39.1338C4.5 37.9843 5.10367 35.4287 7.37117 33.1612C9.60936 30.923 13.5546 28.8838 20.375 28.8838C27.1954 28.8838 31.1406 30.923 33.3788 33.1612C35.6463 35.4287 36.25 37.9843 36.25 39.1338C36.25 39.6619 36.1208 39.9916 35.9785 40.2051C35.832 40.4248 35.6295 40.5838 35.3965 40.7003C35.1597 40.8187 34.9107 40.8829 34.7126 40.916C34.6158 40.9321 34.5374 40.9397 34.4871 40.9433C34.4621 40.9451 34.4446 40.9459 34.4358 40.9462C34.4339 40.9462 34.4325 40.9463 34.4314 40.9463H6.31858Z" stroke="currentColor" stroke-width="2"/>
</g>
<defs>
<clipPath id="clip0_486_1486">
<rect width="45" height="45" fill="white" transform="translate(3.5 2.57129)"/>
</clipPath>
</defs>
</svg>
