<svg width="76" height="28" viewBox="0 0 76 28" fill="none" xmlns="http://www.w3.org/2000/svg">
<path d="M21.9113 0H0V14H21.9113C25.943 14 29.215 10.864 29.215 7C29.215 3.136 25.943 0 21.9113 0Z" fill="currentColor"/>
<path d="M7.30376 14C3.27208 14 0 17.136 0 21C0 24.864 3.27208 28 7.30376 28H29.215V14H7.30376Z" fill="currentColor"/>
<path d="M62.1228 21C63.4901 18.9392 64.2731 16.548 64.2731 14C64.2731 6.2664 57.0803 0 48.2048 0C39.3293 0 32.1365 6.2664 32.1365 14C32.1365 21.7336 39.3293 28 48.2048 28V21H62.1228Z" fill="currentColor"/>
<path d="M76 21H62.1229V28H76V21Z" fill="currentColor"/>
</svg>
