<svg width="31" height="30" viewBox="0 0 31 30" fill="none" xmlns="http://www.w3.org/2000/svg">
<path d="M4.53644 7.08333L23.5371 25.6332M4.53644 7.08333C5.24338 6.27625 6.29927 5.76389 7.47895 5.76389H13.9022M4.53644 7.08333C3.96786 7.73245 3.625 8.57221 3.625 9.48938V23.1495C3.625 25.207 5.35047 26.875 7.47895 26.875H21.6101C23.7386 26.875 25.4641 25.207 25.4641 23.1495V17.5613M13.9022 17.5613L5.55198 25.6332M23.0072 7.34722V7.26785M27.375 7.25543C27.375 10.0091 23.0072 13.6806 23.0072 13.6806C23.0072 13.6806 18.6394 10.0091 18.6394 7.25543C18.6394 4.97426 20.5949 3.125 23.0072 3.125C25.4195 3.125 27.375 4.97426 27.375 7.25543Z" stroke="currentColor" stroke-width="2" stroke-linecap="round" stroke-linejoin="round"/>
</svg>
