<svg width="25" height="28" viewBox="0 0 25 28" fill="none" xmlns="http://www.w3.org/2000/svg">
<path d="M5.47197 18.352C3.70351 19.405 -0.933294 21.5551 1.89083 24.2457C3.27039 25.56 4.80686 26.5 6.73859 26.5H17.7614C19.6931 26.5 21.2296 25.56 22.6092 24.2457C25.4333 21.5551 20.7965 19.405 19.028 18.352C14.881 15.8827 9.61898 15.8827 5.47197 18.352Z" stroke="currentColor" stroke-width="1.5" stroke-linecap="round" stroke-linejoin="round"/>
<path d="M17.875 7.125C17.875 10.2316 15.3566 12.75 12.25 12.75C9.1434 12.75 6.625 10.2316 6.625 7.125C6.625 4.0184 9.1434 1.5 12.25 1.5C15.3566 1.5 17.875 4.0184 17.875 7.125Z" stroke="currentColor" stroke-width="1.5"/>
</svg>
