<svg width="23" height="28" viewBox="0 0 23 28" fill="none" xmlns="http://www.w3.org/2000/svg">
<path d="M8.5 27.125L14.75 27.125C18.2855 27.125 20.0533 27.125 21.1516 26.0256C22.25 24.9263 22.25 23.1568 22.25 19.618V11.4855C22.25 7.94663 22.25 6.17722 21.1516 5.07784C20.3493 4.2748 19.1899 4.05834 17.2451 4H6.00488C4.06013 4.05834 2.90065 4.2748 2.09835 5.07784C1 6.17722 1 7.94663 1 11.4855V19.618C1 23.1568 1 24.9263 2.09835 26.0256C3.1967 27.125 4.96446 27.125 8.49998 27.125H8.5Z" fill="#1C2E4A" stroke="#1C2E4A" stroke-width="1.5"/>
<path d="M7 19.25H12M7 13H17" stroke="white" stroke-width="1.5" stroke-linecap="round"/>
<path d="M15.0625 0.5C16.5468 0.5 17.75 1.70323 17.75 3.1875C17.75 4.67177 16.5468 5.875 15.0625 5.875H8.1875C6.70323 5.875 5.5 4.67177 5.5 3.1875C5.5 1.70323 6.70323 0.5 8.1875 0.5H15.0625Z" fill="#1C2E4A" stroke="white" stroke-linejoin="round"/>
</svg>
