<svg width="23" height="28" viewBox="0 0 23 28" fill="none" xmlns="http://www.w3.org/2000/svg">
<path d="M6.62744 19H11.6274M6.62744 12.75H16.6274" stroke="currentColor" stroke-width="1.5" stroke-linecap="round"/>
<path d="M6.00488 3.375C4.06013 3.43334 2.90065 3.6498 2.09835 4.45284C1 5.55222 1 7.32163 1 10.8605L1 18.993C1 22.5318 1 24.3013 2.09835 25.4006C3.1967 26.5 4.96447 26.5 8.5 26.5L14.75 26.5C18.2855 26.5 20.0533 26.5 21.1516 25.4006C22.25 24.3013 22.25 22.5318 22.25 18.993V10.8605C22.25 7.32163 22.25 5.55222 21.1516 4.45284C20.3493 3.6498 19.1899 3.43334 17.2451 3.375" stroke="currentColor" stroke-width="1.5"/>
<path d="M6 3.6875C6 2.47938 6.97938 1.5 8.1875 1.5H15.0625C16.2706 1.5 17.25 2.47938 17.25 3.6875C17.25 4.89562 16.2706 5.875 15.0625 5.875H8.1875C6.97938 5.875 6 4.89562 6 3.6875Z" stroke="currentColor" stroke-width="1.5" stroke-linejoin="round"/>
</svg>
