<svg width="51" height="51" viewBox="0 0 51 51" fill="none" xmlns="http://www.w3.org/2000/svg">
<path d="M42.6514 11.2274C42.8746 11.4514 43 11.7547 43 12.0709C43 12.3871 42.8746 12.6904 42.6514 12.9144L40.1592 15.409L35.3802 10.6301L37.8725 8.13545C38.0965 7.91147 38.4003 7.78564 38.7171 7.78564C39.0339 7.78564 39.3378 7.91147 39.5618 8.13545L42.6514 11.225V11.2274ZM38.4698 17.096L33.6909 12.317L17.4114 28.5989C17.2799 28.7303 17.1809 28.8907 17.1223 29.0672L15.1988 34.8354C15.1639 34.9405 15.159 35.0533 15.1845 35.1611C15.21 35.2689 15.265 35.3675 15.3434 35.4459C15.4217 35.5242 15.5203 35.5792 15.6281 35.6047C15.7359 35.6303 15.8487 35.6253 15.9539 35.5904L21.722 33.6669C21.8983 33.609 22.0586 33.5108 22.1904 33.3802L38.4698 17.096Z" fill="currentColor"/>
<path fill-rule="evenodd" clip-rule="evenodd" d="M8 38.8499C8 39.8005 8.37762 40.7122 9.04979 41.3843C9.72196 42.0565 10.6336 42.4341 11.5842 42.4341H37.8684C38.8189 42.4341 39.7306 42.0565 40.4028 41.3843C41.0749 40.7122 41.4526 39.8005 41.4526 38.8499V24.5131C41.4526 24.1962 41.3267 23.8923 41.1026 23.6683C40.8786 23.4442 40.5747 23.3184 40.2578 23.3184C39.941 23.3184 39.6371 23.4442 39.413 23.6683C39.189 23.8923 39.0631 24.1962 39.0631 24.5131V38.8499C39.0631 39.1668 38.9372 39.4707 38.7132 39.6947C38.4891 39.9188 38.1852 40.0446 37.8684 40.0446H11.5842C11.2673 40.0446 10.9635 39.9188 10.7394 39.6947C10.5153 39.4707 10.3895 39.1668 10.3895 38.8499V12.5657C10.3895 12.2489 10.5153 11.945 10.7394 11.7209C10.9635 11.4969 11.2673 11.371 11.5842 11.371H27.1157C27.4326 11.371 27.7365 11.2451 27.9606 11.0211C28.1846 10.797 28.3105 10.4931 28.3105 10.1763C28.3105 9.85942 28.1846 9.55553 27.9606 9.33148C27.7365 9.10742 27.4326 8.98155 27.1157 8.98155H11.5842C10.6336 8.98155 9.72196 9.35917 9.04979 10.0313C8.37762 10.7035 8 11.6152 8 12.5657V38.8499Z" fill="#404040"/>
</svg>
