<svg width="51" height="51" viewBox="0 0 51 51" fill="none" xmlns="http://www.w3.org/2000/svg">
<path fill-rule="evenodd" clip-rule="evenodd" d="M24.4995 15.8609C27.7359 12.5359 35.8255 18.3575 24.4995 25.8405C13.1735 18.3575 21.2632 12.5382 24.4995 15.8655V15.8609Z" fill="currentColor"/>
<path d="M10.5 10.238C10.5 9.00028 10.9917 7.81329 11.8668 6.93812C12.742 6.06295 13.929 5.57129 15.1667 5.57129H33.8333C35.071 5.57129 36.258 6.06295 37.1332 6.93812C38.0083 7.81329 38.5 9.00028 38.5 10.238V41.738C38.4999 41.949 38.4425 42.156 38.3341 42.3371C38.2256 42.5181 38.07 42.6663 37.884 42.7659C37.698 42.8655 37.4884 42.9128 37.2776 42.9027C37.0668 42.8926 36.8627 42.8255 36.687 42.7086L24.5 36.1403L12.313 42.7086C12.1373 42.8255 11.9332 42.8926 11.7224 42.9027C11.5116 42.9128 11.302 42.8655 11.116 42.7659C10.93 42.6663 10.7744 42.5181 10.6659 42.3371C10.5575 42.156 10.5001 41.949 10.5 41.738V10.238ZM15.1667 7.90462C14.5478 7.90462 13.9543 8.15046 13.5168 8.58804C13.0792 9.02562 12.8333 9.61912 12.8333 10.238V39.5586L23.8537 33.7673C24.0451 33.6399 24.27 33.5719 24.5 33.5719C24.73 33.5719 24.9549 33.6399 25.1463 33.7673L36.1667 39.5586V10.238C36.1667 9.61912 35.9208 9.02562 35.4832 8.58804C35.0457 8.15046 34.4522 7.90462 33.8333 7.90462H15.1667Z" fill="currentColor"/>
</svg>
