<svg width="35" height="35" viewBox="0 0 35 35" fill="none" xmlns="http://www.w3.org/2000/svg">
<path d="M29.7562 11.417L29.1392 10.3462C28.6726 9.53644 28.4393 9.13154 28.0423 8.97009C27.6454 8.80863 27.1964 8.93603 26.2985 9.19084L24.7732 9.62046C24.1999 9.75266 23.5985 9.67766 23.0751 9.40873L22.654 9.16576C22.2051 8.87828 21.8599 8.4544 21.6688 7.95616L21.2513 6.70943C20.9769 5.88441 20.8396 5.47189 20.5129 5.23595C20.1862 5 19.7522 5 18.8843 5H17.4908C16.6228 5 16.1889 5 15.8622 5.23595C15.5354 5.47189 15.3982 5.88441 15.1237 6.70943L14.7063 7.95616C14.5152 8.4544 14.1699 8.87828 13.7211 9.16576L13.3 9.40873C12.7765 9.67766 12.1751 9.75266 11.6019 9.62046L10.0766 9.19084C9.17864 8.93603 8.72968 8.80863 8.33271 8.97009C7.93574 9.13154 7.70243 9.53644 7.23582 10.3462L6.61883 11.417C6.18145 12.176 5.96275 12.5556 6.0052 12.9596C6.04764 13.3636 6.34041 13.6892 6.92595 14.3404L8.21475 15.7813C8.52975 16.18 8.75338 16.875 8.75338 17.4998C8.75338 18.125 8.52982 18.8198 8.21478 19.2186L6.92596 20.6595L6.92594 20.6595C6.34041 21.3107 6.04764 21.6363 6.0052 22.0403C5.96275 22.4443 6.18145 22.8239 6.61883 23.5829L7.2358 24.6536L7.23581 24.6537C7.70241 25.4634 7.93574 25.8683 8.33271 26.0298C8.72969 26.1913 9.17866 26.0638 10.0766 25.809L11.6018 25.3794C12.1752 25.2472 12.7767 25.3222 13.3002 25.5912L13.7212 25.8342C14.17 26.1217 14.5152 26.5455 14.7062 27.0437L15.1237 28.2906C15.3982 29.1156 15.5354 29.5281 15.8622 29.7641C16.1889 30 16.6228 30 17.4908 30H18.8843C19.7522 30 20.1862 30 20.5129 29.7641C20.8396 29.5281 20.9769 29.1156 21.2513 28.2906L21.6688 27.0437C21.8599 26.5455 22.2051 26.1217 22.6538 25.8342L23.0749 25.5912C23.5984 25.3222 24.1999 25.2472 24.7733 25.3794L26.2985 25.809C27.1964 26.0638 27.6454 26.1913 28.0423 26.0298C28.4393 25.8683 28.6727 25.4634 29.1393 24.6536L29.7562 23.5829C30.1936 22.8239 30.4123 22.4443 30.3699 22.0403C30.3274 21.6363 30.0346 21.3107 29.4491 20.6595L29.4491 20.6595L28.1603 19.2186C27.8452 18.8198 27.6217 18.125 27.6217 17.4998C27.6217 16.875 27.8453 16.18 28.1603 15.7813L29.4491 14.3404C30.0347 13.6892 30.3274 13.3636 30.3699 12.9596C30.4123 12.5556 30.1936 12.176 29.7562 11.417L29.7562 11.417Z" stroke="currentColor" stroke-width="1.5" stroke-linecap="round"/>
<path d="M22.5088 17.4902C22.5088 19.9065 20.55 21.8652 18.1338 21.8652C15.7175 21.8652 13.7588 19.9065 13.7588 17.4902C13.7588 15.074 15.7175 13.1152 18.1338 13.1152C20.55 13.1152 22.5088 15.074 22.5088 17.4902Z" stroke="currentColor" stroke-width="1.5"/>
</svg>
