<svg width="15" height="14" viewBox="0 0 15 14" fill="none" xmlns="http://www.w3.org/2000/svg">
<path d="M7.20535 1.58302C7.32584 1.33886 7.674 1.33886 7.79449 1.58302L9.35433 4.74359C9.40218 4.84054 9.49467 4.90774 9.60166 4.92329L13.0896 5.43011C13.359 5.46926 13.4666 5.80037 13.2716 5.99042L10.7478 8.45058C10.6703 8.52605 10.635 8.63478 10.6533 8.74134L11.2491 12.2151C11.2951 12.4835 11.0134 12.6881 10.7725 12.5614L7.65278 10.9213C7.55708 10.871 7.44276 10.871 7.34706 10.9213L4.22739 12.5614C3.9864 12.6881 3.70473 12.4835 3.75076 12.2151L4.34656 8.74134C4.36484 8.63478 4.32951 8.52605 4.25209 8.45058L1.72822 5.99042C1.53326 5.80037 1.64084 5.46926 1.91028 5.43011L5.39818 4.92329C5.50517 4.90774 5.59766 4.84054 5.64551 4.74359L7.20535 1.58302Z" fill="currentColor"/>
</svg>
