<svg width="26" height="28" viewBox="0 0 26 28" fill="none" xmlns="http://www.w3.org/2000/svg">
<path d="M15.7647 23.5589V11.7942C15.7647 10.4077 15.7647 9.71448 15.334 9.28375C14.9033 8.85303 14.21 8.85303 12.8235 8.85303C11.437 8.85303 10.7438 8.85303 10.3131 9.28375C9.88235 9.71448 9.88235 10.4077 9.88235 11.7942V23.5589C9.88235 24.9454 9.88235 25.6386 10.3131 26.0694C10.7438 26.5001 11.437 26.5001 12.8235 26.5001C14.21 26.5001 14.9033 26.5001 15.334 26.0694C15.7647 25.6386 15.7647 24.9454 15.7647 23.5589Z" stroke="currentColor" stroke-width="1.5" stroke-linecap="round" stroke-linejoin="round"/>
<path d="M24.6471 22.3333V5.66667C24.6471 3.70248 24.6471 2.72039 24.2163 2.11019C23.7856 1.5 23.0924 1.5 21.7059 1.5C20.3194 1.5 19.6262 1.5 19.1954 2.11019C18.7647 2.72039 18.7647 3.70248 18.7647 5.66667V22.3333C18.7647 24.2975 18.7647 25.2796 19.1954 25.8898C19.6262 26.5 20.3194 26.5 21.7059 26.5C23.0924 26.5 23.7856 26.5 24.2163 25.8898C24.6471 25.2796 24.6471 24.2975 24.6471 22.3333Z" stroke="currentColor" stroke-width="1.5" stroke-linecap="round" stroke-linejoin="round"/>
<path d="M6.88235 23.5588V16.2058C6.88235 14.8193 6.88235 14.1261 6.45163 13.6954C6.0209 13.2646 5.32766 13.2646 3.94118 13.2646C2.55469 13.2646 1.86145 13.2646 1.43073 13.6954C1 14.1261 1 14.8193 1 16.2058V23.5588C1 24.9452 1 25.6385 1.43073 26.0692C1.86145 26.4999 2.55469 26.4999 3.94118 26.4999C5.32766 26.4999 6.0209 26.4999 6.45163 26.0692C6.88235 25.6385 6.88235 24.9452 6.88235 23.5588Z" stroke="currentColor" stroke-width="1.5" stroke-linecap="round" stroke-linejoin="round"/>
</svg>
