<svg width="15" height="16" viewBox="0 0 15 16" fill="none" xmlns="http://www.w3.org/2000/svg">
<path d="M8.75 7.05273H11.7275C11.9405 7.05274 12.15 7.1072 12.3361 7.21094C12.5222 7.31467 12.6787 7.46425 12.7907 7.64546C12.9027 7.82667 12.9666 8.03351 12.9762 8.24634C12.9858 8.45916 12.9409 8.67091 12.8456 8.86148L10.6581 13.2365C10.5543 13.4443 10.3946 13.619 10.197 13.7411C9.99939 13.8632 9.77166 13.9278 9.53937 13.9277H7.02875C6.92688 13.9277 6.825 13.9152 6.72562 13.8902L4.375 13.3027M8.75 7.05273V3.92773C8.75 3.59621 8.6183 3.27827 8.38388 3.04385C8.14946 2.80943 7.83152 2.67773 7.5 2.67773H7.44062C7.12812 2.67773 6.875 2.93086 6.875 3.24336C6.875 3.68961 6.74313 4.12586 6.495 4.49711L4.375 7.67773V13.3027M8.75 7.05273H7.5M4.375 13.3027H3.125C2.79348 13.3027 2.47554 13.171 2.24112 12.9366C2.0067 12.7022 1.875 12.3843 1.875 12.0527V8.30273C1.875 7.97121 2.0067 7.65327 2.24112 7.41885C2.47554 7.18443 2.79348 7.05273 3.125 7.05273H4.6875" stroke="currentColor" stroke-linecap="round" stroke-linejoin="round"/>
</svg>
